<?xml version='1.0' encoding='utf-8'?>
<svg xmlns="http://www.w3.org/2000/svg" version="1.1" width="600px" height="976px" viewBox="0 0 600 976"> <g id="layer1"> <g style="fill:rgb(0,51,153); fill-opacity:1.0; stroke-linejoin: miter"> <path d="M211.89775,1043.3501Q136.83218,1043.405,82.39572,1094.5386Q29.122482,1147.6641,26.797817,1222.7041Q26.721592,1297.8167,78.2255,1352.5829Q131.0104,1405.4624,206.01204,1407.9291Q281.08032,1407.985,335.59906,1356.919Q388.9536,1303.8544,391.37347,1228.8145Q391.54456,1153.7043,340.12292,1098.8796Q287.43,1045.9398,212.4284,1043.3585"/> </g> <g style="fill:url(#grad0); fill-opacity:0.30588236; stroke-linejoin: miter"> <path d="M211.33037,1065.6753Q145.70692,1065.6566,97.82384,1110.4995Q50.811882,1157.5975,48.97452,1222.889Q49.089012,1289.405,94.01846,1336.8539Q140.35416,1383.285,205.94948,1385.4669Q271.5747,1385.6786,319.58276,1340.9684Q366.72534,1294.0009,368.74994,1228.7166Q369.29163,1163.4076,324.02698,1114.6246Q277.15723,1068.0254,213.48422,1065.7451"/> </g> <g> <g style="fill:rgb(255,204,0); fill-opacity:1.0; stroke-linejoin: miter"> <path d="M212.17136,1226.2737C212.861,1226.2737,213.5705,1226.3689,214.46466,1226.5568C217.87762,1227.2837,220.82602,1229.6013,222.3848,1232.7563C223.13531,1234.3193,223.22159,1234.7825,223.21878,1237.3861C223.21603,1239.9319,223.12863,1240.4814,222.43274,1241.9272C221.38889,1244.1537,220.34601,1245.4255,218.52206,1246.6964L216.98761,1247.7362L216.97812,1256.5309L216.96866,1265.2966L212.19522,1265.2915L207.42178,1265.2864L207.4313,1256.4626L207.4408,1247.668L206.19778,1246.7988C204.43433,1245.5818,202.87411,1243.7576,201.97928,1241.8762C201.3443,1240.4868,201.22928,1239.8503,201.23181,1237.507C201.23447,1235.0479,201.32178,1234.5562,202.13367,1232.8792C203.64148,1229.6985,206.16068,1227.5894,209.57538,1226.6672C210.58844,1226.4034,211.36636,1226.2737,212.17136,1226.2737 Z M188.87677,1211.8256C180.46252,1211.8256,175.03088,1211.843,174.93323,1211.8755C174.78851,1211.9331,174.29657,1212.0483,173.86252,1212.1348C172.7919,1212.365,171.02542,1213.9542,170.56131,1215.111C170.21335,1215.8627,170.14941,1221.4751,170.12308,1245.8629C170.09207,1274.5615,170.11975,1275.7188,170.63934,1276.7607C171.30328,1278.0923,171.96802,1278.7004,173.35602,1279.2805C174.28137,1279.6577,178.85223,1279.7205,212.17957,1279.7566C217.71954,1279.7625,222.4649,1279.7661,226.531,1279.7661C246.92584,1279.7661,250.23184,1279.6772,251.00409,1279.3645C252.39331,1278.7874,253.05939,1278.1807,253.72623,1276.8506C254.24805,1275.8097,254.27823,1274.6525,254.3092,1245.9829C254.33118,1225.6451,254.25494,1215.9246,254.02411,1215.3748C253.64908,1214.3618,252.4643,1213.0875,251.30783,1212.45C250.52719,1211.9861,247.28705,1211.9536,212.83154,1211.8586C203.77911,1211.8362,195.42477,1211.8256,188.87677,1211.8256 Z"/> </g> <g style="fill:rgb(255,204,0); fill-opacity:1.0; stroke-linejoin: miter"> <path d="M211.28403,1171.6769C214.57504,1171.6769,218.344,1171.8899,219.96219,1172.2612C226.38306,1173.7434,232.91736,1177.309,237.3389,1181.7112C241.44257,1185.7947,245.3107,1193.6389,246.83606,1200.9597C247.32535,1203.3037,247.98569,1207.991,247.98431,1209.2639C247.9838,1209.7255,247.5762,1209.7789,243.0091,1209.7789C242.70877,1209.7789,242.39044,1209.7787,242.05307,1209.7783C241.97858,1209.7783,241.905,1209.7782,241.8323,1209.7782C240.82971,1209.7782,239.99823,1209.7854,239.30774,1209.7854C235.49924,1209.7854,235.9794,1209.5679,235.6918,1206.7338C235.43408,1204.2744,234.25293,1199.6443,233.24304,1197.2131C230.50183,1190.5852,225.53052,1186.2982,218.27133,1184.2363C216.70905,1183.7903,214.41626,1183.5626,212.16214,1183.5626C210.15997,1183.5626,208.18832,1183.7422,206.78622,1184.1082C202.90854,1185.1165,197.95856,1187.8595,195.64151,1190.316C193.70093,1192.368,191.75891,1195.8086,190.53998,1199.4236C189.66931,1201.9685,188.68051,1206.7407,188.67865,1208.4476L188.67728,1209.7206L182.60202,1209.7141C177.82858,1209.7089,176.5268,1209.6206,176.52713,1209.3313C176.52734,1209.1289,176.70273,1207.4512,176.93619,1205.5999C178.16171,1195.9385,181.75809,1187.5237,186.94235,1182.1484C191.92395,1176.9464,198.72635,1173.3665,206.2208,1171.957C207.24127,1171.7654,209.16345,1171.6769,211.28403,1171.6769 Z"/> </g> <g style="fill:rgb(255,204,0); fill-opacity:1.0; stroke-linejoin: miter"> <path d="M314.01547,1146.0818C314.12103,1146.0818,314.25494,1146.3208,314.41724,1146.7891C314.61917,1147.339,315.85977,1150.4358,317.1871,1153.6484L319.58194,1159.5239L321.20197,1159.5546C322.0988,1159.5845,325.39667,1159.6748,328.57886,1159.794L334.30682,1159.9736L329.0078,1164.4233C326.08322,1166.8792,323.50616,1169.0171,323.33237,1169.1906C323.0428,1169.4507,323.10016,1169.9136,323.53253,1171.3894C324.80103,1175.4988,327.0202,1183.3124,326.9333,1183.399C326.9328,1183.3993,326.9321,1183.3994,326.93124,1183.3994C326.82834,1183.3994,324.07153,1181.729,320.74634,1179.6316L314.64627,1175.8062L308.5954,1179.9366C305.26605,1182.1895,302.51578,1184.009,302.48676,1184.009C302.48676,1184.009,302.48676,1184.009,302.48676,1184.009C302.45786,1183.9802,303.2134,1180.8855,304.17215,1177.1545C305.1019,1173.4236,305.88647,1170.2131,305.88672,1170.0106C305.8869,1169.8372,303.28555,1167.6646,300.10587,1165.231C296.92624,1162.7974,294.44043,1160.7695,294.55618,1160.7408C294.67194,1160.712,297.94125,1160.4841,301.8471,1160.228C305.75293,1159.9429,308.99338,1159.686,309.0513,1159.6282C309.1092,1159.5994,310.18277,1156.6497,311.43063,1153.0925C312.70737,1149.5356,313.81006,1146.4413,313.89713,1146.21C313.93152,1146.1243,313.97098,1146.0818,314.01547,1146.0818 Z"/> </g> <g style="fill:rgb(255,204,0); fill-opacity:1.0; stroke-linejoin: miter"> <path d="M269.59592,1101.2917L272.3658,1108.1512C274.90485,1114.4318,275.1935,1115.0396,275.85886,1115.0981C276.26385,1115.1276,279.5329,1115.1888,283.178,1115.2218C286.79422,1115.2836,289.745,1115.3734,289.7159,1115.4891C289.71582,1115.576,288.12314,1116.963,286.21207,1118.552C284.27206,1120.141,281.7529,1122.2213,280.62354,1123.2037L278.56763,1124.9373L279.77814,1129.1334C280.44107,1131.4196,281.36343,1134.574,281.8536,1136.1078C282.31473,1137.6704,282.66052,1138.9437,282.6027,1138.9437L282.6027,1138.9437C282.5159,1138.9437,279.74045,1137.2338,276.38687,1135.1471C273.1457,1133.113,270.3165,1131.4918,269.98865,1131.4918C269.9802,1131.4918,269.97342,1131.4928,269.96832,1131.495C269.76572,1131.5817,267.0443,1133.4012,263.85974,1135.5675C260.704,1137.734,258.0984,1139.4958,258.06946,1139.4958C258.04053,1139.4957,258.82513,1136.2854,259.784,1132.3809L261.58536,1125.295L255.86197,1120.8915C252.71121,1118.4579,250.13864,1116.43,250.13876,1116.3143C250.10992,1116.2275,250.54395,1116.17,251.06473,1116.1417C252.77164,1116.0858,261.5092,1115.4586,263.10056,1115.2579L264.66296,1115.057L267.12946,1108.1744L269.59592,1101.2917 Z"/> </g> <g style="fill:rgb(255,204,0); fill-opacity:1.0; stroke-linejoin: miter"> <path d="M209.02924,1085.4865C209.03091,1085.4865,209.03238,1085.4872,209.0336,1085.4884C209.12024,1085.6041,210.38995,1088.6143,211.83255,1092.2032C213.53488,1096.4288,214.63165,1098.7733,214.9209,1098.8314C215.18124,1098.8607,218.45026,1098.9509,222.18216,1098.984C225.94302,1099.0458,229.00949,1099.1649,229.0094,1099.2516C229.00931,1099.3385,226.54794,1101.4767,223.50757,1103.9902C220.4961,1106.5328,218.0058,1108.671,218.00568,1108.7867C218.0055,1108.9603,218.69727,1111.3334,221.46426,1120.8542C221.75238,1121.8671,221.95398,1122.6771,221.86731,1122.6772L221.86725,1122.6772C221.80939,1122.6771,219.1496,1121.0543,215.96951,1119.0258C212.76044,1117.026,209.98495,1115.3451,209.78256,1115.2582C209.77707,1115.256,209.77011,1115.255,209.76175,1115.255C209.41754,1115.255,206.66605,1116.9849,203.50058,1119.128C200.30911,1121.317,197.6506,1123.0863,197.51248,1123.0863C197.51025,1123.0863,197.5087,1123.0858,197.50778,1123.0848C197.44995,1123.0559,198.20563,1119.8455,199.16443,1115.9989C200.70435,1109.8962,200.87897,1108.9418,200.50317,1108.6521C196.91867,1106.0155,189.40317,1100.1925,189.40332,1100.0479C189.37448,1099.961,189.92426,1099.8749,190.61862,1099.8467C192.49918,1099.7618,200.31082,1099.2496,202.27826,1099.0492L204.01422,1098.8776L206.45166,1092.1106C207.73898,1088.4331,208.913,1085.4865,209.02924,1085.4865 Z"/> </g> <g style="fill:rgb(255,204,0); fill-opacity:1.0; stroke-linejoin: miter"> <path d="M148.29224,1101.4789C148.29227,1101.4789,148.29227,1101.4789,148.29227,1101.4789C148.37906,1101.479,149.61987,1104.4312,151.06247,1108.049C153.45715,1114.069,153.74582,1114.6478,154.46887,1114.8223C154.93161,1114.9674,158.25842,1115.0868,161.90356,1115.1195C165.5487,1115.1525,168.52844,1115.2135,168.52841,1115.2426C168.52832,1115.3004,159.72559,1122.7258,157.72766,1124.3439C157.20648,1124.7771,157.26407,1125.0087,159.1088,1131.2885C160.17535,1134.8768,161.09766,1138.0602,161.18414,1138.3496C161.23706,1138.5444,161.33875,1138.715,161.2258,1138.715C160.96964,1138.715,159.60938,1137.8379,154.07162,1134.3785C151.38016,1132.7203,149.04196,1131.389,148.71826,1131.389C148.70816,1131.389,148.70004,1131.3903,148.69391,1131.393C148.49133,1131.4506,145.71204,1133.2991,142.46951,1135.4943C139.12805,1137.7509,137.15591,1138.9601,136.83679,1138.9601C136.79648,1138.9601,136.78253,1138.9408,136.79556,1138.9019C137.28915,1137.2533,140.16608,1125.3373,140.1084,1125.1637C140.05066,1125.0479,137.62265,1123.1069,134.67426,1120.8473C128.65013,1116.213,128.3497,1116.0084,129.13792,1116.0083L129.13919,1116.0083C129.213,1116.0083,129.2963,1116.0101,129.38528,1116.0101C129.40926,1116.0109,129.43782,1116.0114,129.47078,1116.0114C130.79086,1116.0114,139.16629,1115.4359,141.5657,1115.1844L143.30173,1114.9838L145.1878,1109.7494C146.23242,1106.8866,147.30612,1103.8212,147.59634,1102.9825C147.88644,1102.1729,148.20541,1101.4789,148.29224,1101.4789 Z"/> </g> <g style="fill:rgb(255,204,0); fill-opacity:1.0; stroke-linejoin: miter"> <path d="M103.5912,1145.9695C103.75984,1145.9695,104.98995,1148.7571,106.43348,1152.3213C107.933815,1156.0549,109.23234,1159.1519,109.29014,1159.2097C109.34794,1159.2677,112.67469,1159.416,116.69584,1159.5361L124.0149,1159.7463L118.860664,1164.0803C115.994026,1166.4495,113.44587,1168.6165,113.15632,1168.8477C112.693,1169.2522,112.72169,1169.4836,113.817024,1173.1879C115.604225,1179.1783,116.67066,1182.8535,116.67042,1183.085C116.6704,1183.0955,116.66227,1183.1003,116.64658,1183.1003C116.48729,1183.1003,115.54953,1182.5825,114.4441,1181.8965C113.200935,1181.114,110.396614,1179.3752,108.22834,1178.0132L104.267586,1175.5498L103.1674,1176.3297C98.99681,1179.3335,92.63973,1183.4932,92.1893,1183.4932C92.16757,1183.4932,92.159584,1183.4835,92.16627,1183.4636C92.42741,1182.7695,95.5655,1170.1305,95.565926,1169.7544C95.56608,1169.6099,92.9647,1167.4661,89.78504,1165.0037C86.634315,1162.5701,84.119576,1160.5422,84.23533,1160.5134C84.35105,1160.4846,87.62043,1160.2568,91.52625,1160.0006C95.432106,1159.7156,98.64359,1159.4587,98.701485,1159.4298C98.75941,1159.3721,99.833015,1156.4224,101.10978,1152.8652C102.38651,1149.3372,103.489204,1146.2139,103.57627,1145.9827C103.57957,1145.9739,103.584564,1145.9695,103.5912,1145.9695 Z"/> </g> <g style="fill:rgb(255,204,0); fill-opacity:1.0; stroke-linejoin: miter"> <path d="M87.416466,1206.5769C87.64866,1206.5769,88.23976,1207.9863,90.600075,1213.9541C91.75407,1216.9063,92.82169,1219.4822,92.995094,1219.6559C93.16837,1219.9165,94.32545,1220.0334,96.63981,1220.0648C98.49128,1220.0957,101.70243,1220.186,103.814186,1220.304L107.63276,1220.4817L102.04417,1225.1913L96.455605,1229.9009L97.81025,1234.5889C98.55964,1237.1646,99.51087,1240.3479,99.91447,1241.6791C100.3218,1242.9875,100.498604,1243.8594,100.348656,1243.8594C100.3394,1243.8594,100.3289,1243.856,100.31715,1243.8492C100.114784,1243.7333,97.77302,1242.2843,95.05543,1240.5745C92.36677,1238.8936,89.67808,1237.2129,89.09986,1236.865L88.03016,1236.2273L82.00822,1240.3579C78.67881,1242.6398,75.928474,1244.4883,75.89954,1244.4883C75.899574,1244.4592,76.65504,1241.4225,77.58485,1237.6915C78.514626,1233.9606,79.2992,1230.7212,79.29951,1230.4609C79.27085,1230.2004,76.72736,1228.028,73.60551,1225.6523L67.93989,1221.3066L69.357704,1221.1057C71.2354,1220.8767,79.34227,1220.3083,81.09573,1220.3083C81.09855,1220.3083,81.10135,1220.3083,81.10413,1220.3083C81.112595,1220.3083,81.121,1220.3083,81.129364,1220.3083C82.29274,1220.3083,82.4658,1220.2179,82.725105,1219.5001C82.89915,1219.0664,83.943825,1216.1167,85.07551,1212.9355C86.20722,1209.7545,87.222786,1206.9493,87.30985,1206.718C87.33862,1206.6321,87.370514,1206.5769,87.416466,1206.5769 Z"/> </g> <g style="fill:rgb(255,204,0); fill-opacity:1.0; stroke-linejoin: miter"> <path d="M103.36926,1267.2019C103.63141,1267.2019,104.45423,1269.0127,106.24473,1273.48C107.629616,1276.953,108.87034,1279.9631,109.01475,1280.1947C109.24583,1280.5421,113.874275,1280.8364,123.30518,1281.1069C123.73911,1281.1074,117.97657,1286.193,113.31483,1289.891L112.53306,1290.4977L114.55067,1297.4142C115.64591,1301.234,116.510414,1304.3883,116.45252,1304.4172C116.45154,1304.4182,116.449776,1304.4187,116.44724,1304.4187C116.300995,1304.4187,113.59196,1302.7875,110.35227,1300.7366C107.08494,1298.6859,104.26424,1297.083,104.003006,1297.083C103.99841,1297.083,103.99461,1297.0835,103.991615,1297.0845C103.78901,1297.171,101.067604,1298.9906,97.9119,1301.1571C94.78519,1303.3234,92.12174,1305.0852,92.03487,1305.0852C92.03486,1305.0852,92.03486,1305.0852,92.03486,1305.0852C91.94807,1305.0851,91.97724,1304.8536,92.09327,1304.5646C92.38334,1303.8705,95.4343,1291.5497,95.43479,1291.1156C95.435005,1290.9132,92.804726,1288.7406,89.62507,1286.2781L83.78608,1281.7875L85.3484,1281.7024C90.26673,1281.4763,98.48359,1280.7618,98.628456,1280.5885C98.88917,1280.2705,103.27085,1267.98,103.27134,1267.5461C103.271576,1267.3213,103.30192,1267.2019,103.36926,1267.2019 Z"/> </g> <g style="fill:rgb(255,204,0); fill-opacity:1.0; stroke-linejoin: miter"> <path d="M148.065,1311.7997C148.065,1311.7997,148.065,1311.7997,148.065,1311.7997C148.1518,1311.7997,149.39258,1314.7809,150.8641,1318.3988L153.48962,1324.9686L155.7749,1325.1447C157.01877,1325.2618,160.37451,1325.3811,163.20963,1325.4131L168.388,1325.5055L167.66406,1326.112C167.2587,1326.4587,164.94223,1328.3947,162.48093,1330.475C160.04855,1332.5264,157.78995,1334.4333,157.5004,1334.6644C157.00818,1335.0688,157.0946,1335.4161,159.02576,1342.0143C160.1499,1345.8342,161.01443,1348.9596,160.98544,1349.0175C160.98495,1349.0177,160.98425,1349.0178,160.98337,1349.0178C160.88068,1349.0178,158.18155,1347.3767,154.91412,1345.3368C151.58939,1343.2792,148.78497,1341.5981,148.61142,1341.5979C148.61142,1341.5979,148.61142,1341.5979,148.61142,1341.5979C148.46658,1341.5979,145.68744,1343.4175,142.4739,1345.6127C139.25723,1347.7903,136.61041,1349.5701,136.54019,1349.5701C136.53964,1349.5701,136.53925,1349.5698,136.539,1349.5696C136.5101,1349.5406,137.26563,1346.417,138.22449,1342.5994C139.15436,1338.7815,139.93887,1335.6001,139.939,1335.5134C139.93909,1335.4265,137.33762,1333.3408,134.15799,1330.8783L128.34793,1326.3878L135.66779,1325.875C139.6604,1325.619,143.0456,1325.2467,143.13254,1325.1022C143.21948,1324.9575,144.32211,1321.921,145.5989,1318.3351C146.87567,1314.7493,147.97818,1311.7997,148.065,1311.7997 Z"/> </g> <g style="fill:rgb(255,204,0); fill-opacity:1.0; stroke-linejoin: miter"> <path d="M208.80322,1328.0791C208.8135,1328.0791,208.82224,1328.0842,208.82932,1328.095C208.91592,1328.2686,210.15665,1331.3076,211.57037,1334.8386L214.10925,1341.2927L218.44858,1341.4999C220.82071,1341.5892,224.11859,1341.6797,225.76764,1341.6814C227.3877,1341.6831,228.74734,1341.7714,228.71829,1341.8871C228.71814,1342.0317,226.28574,1344.141,223.33221,1346.5969C220.37872,1349.0237,217.91733,1351.1909,217.85928,1351.3645C217.77231,1351.5378,218.63678,1354.7212,219.73206,1358.4543C220.8274,1362.1875,221.72086,1365.2839,221.69193,1365.2839C221.69092,1365.2849,221.68912,1365.2854,221.68652,1365.2854C221.54019,1365.2854,218.87717,1363.6864,213.42343,1360.2411L209.23138,1357.604L207.92853,1358.5573C207.17578,1359.0771,204.71487,1360.7814,202.3988,1362.3411C200.08273,1363.9009,197.96924,1365.374,197.70862,1365.6051C197.51569,1365.759,197.34851,1365.8489,197.25848,1365.8489C197.21338,1365.8489,197.18765,1365.8264,197.18768,1365.7781C197.18784,1365.6335,197.97247,1362.3942,198.93124,1358.5764C199.86115,1354.7587,200.55893,1351.5771,200.44333,1351.4612C200.3277,1351.3744,198.56442,1349.9839,196.48322,1348.3904C194.43088,1346.8259,191.88715,1344.885,190.87549,1344.0737L189.05441,1342.6543L193.77036,1342.3123C196.37427,1342.1125,199.67258,1341.8557,201.11917,1341.7415L203.72314,1341.513L205.08694,1337.7534C205.84137,1335.6714,206.944,1332.606,207.55338,1330.8998C208.1254,1329.2983,208.64594,1328.0791,208.80322,1328.0791 Z"/> </g> <g style="fill:rgb(255,204,0); fill-opacity:1.0; stroke-linejoin: miter"> <path d="M269.36868,1311.6124L272.1097,1318.3851L274.8218,1325.1576L278.06177,1325.3636C279.8264,1325.4524,283.1243,1325.5717,285.40976,1325.5741C287.66626,1325.6056,289.5177,1325.7233,289.48868,1325.8099C289.4886,1325.8967,288.93832,1326.4167,288.27237,1326.9368C287.60635,1327.4858,285.08722,1329.5659,282.68387,1331.5596L278.34042,1335.229L279.5509,1339.425C280.24274,1341.7402,281.16513,1344.8947,281.6263,1346.4573C282.07712,1347.9851,282.36243,1349.2084,282.29398,1349.2084C282.2924,1349.2084,282.29065,1349.2078,282.2887,1349.2064C282.17303,1349.1484,279.36877,1347.4097,276.044,1345.352C272.7758,1343.3009,270.01035,1341.6697,269.83478,1341.6697C269.83173,1341.6697,269.82947,1341.6702,269.828,1341.6711C269.74118,1341.7,267.07767,1343.5198,263.89304,1345.715C260.70837,1347.8813,258.04486,1349.7009,257.92908,1349.7587L257.9268,1349.7587C257.85513,1349.7302,258.5198,1346.7728,259.44058,1343.1064C260.37036,1339.4043,261.155,1336.165,261.1553,1335.8757C261.15573,1335.4998,252.51324,1328.4604,250.4317,1327.1563C250.11368,1326.9534,249.88245,1326.7507,249.88254,1326.6638C249.88263,1326.5771,253.09421,1326.2622,257.02896,1326.0062C260.96378,1325.7213,264.26215,1325.4066,264.37793,1325.291C264.49377,1325.1754,265.6544,1322.0522,266.9602,1318.3507L269.36868,1311.6124 Z"/> </g> <g style="fill:rgb(255,204,0); fill-opacity:1.0; stroke-linejoin: miter"> <path d="M313.68466,1267.4187C313.9413,1267.4187,314.76758,1269.2649,316.5943,1273.8809C318.00803,1277.4119,319.2488,1280.4219,319.3644,1280.5378C319.53778,1280.7405,328.1005,1281.2126,333.48135,1281.3341C333.97318,1281.3347,332.75684,1282.4905,328.5582,1286.0155C325.48883,1288.587,322.9407,1290.6962,322.91174,1290.7251C322.8828,1290.7251,323.74744,1293.7926,324.84277,1297.5258C325.93802,1301.2589,326.83148,1304.4132,326.7735,1304.5289C326.7725,1304.5328,326.7683,1304.5348,326.76105,1304.5348C326.55566,1304.5348,323.88397,1302.979,320.6731,1300.964C317.40582,1298.9133,314.58508,1297.3104,314.2964,1297.3104C314.29132,1297.3104,314.28705,1297.3109,314.28354,1297.3119C314.10986,1297.3983,311.38846,1299.218,308.23273,1301.3844C305.1283,1303.5441,302.55634,1305.2561,302.41843,1305.2561C302.41617,1305.2561,302.41455,1305.2556,302.4136,1305.2548C302.38474,1305.1969,303.1113,1302.16,304.04102,1298.5157C304.9707,1294.8427,305.72632,1291.6613,305.7266,1291.4298C305.72684,1291.1984,303.12555,1288.9679,299.91696,1286.5054L294.10693,1282.0149L295.66922,1281.9297C301.1373,1281.6462,308.77548,1281.0181,308.9493,1280.8159C309.21,1280.5269,313.5917,1268.2074,313.59222,1267.7445C313.59244,1267.532,313.62106,1267.4187,313.68466,1267.4187 Z"/> </g> <g style="fill:rgb(255,204,0); fill-opacity:1.0; stroke-linejoin: miter"> <path d="M329.95148,1206.7037C330.21118,1206.7037,331.05557,1208.6184,332.97604,1213.4928L335.6881,1220.2943L339.33328,1220.3271C341.35834,1220.3584,344.65628,1220.4486,346.68124,1220.5665L350.32626,1220.744L345.1431,1225.078C342.27646,1227.4471,339.75723,1229.6141,339.5255,1229.8453C339.20688,1230.2212,339.43716,1231.2917,341.13776,1237.0796C342.2331,1240.8127,343.12646,1243.996,343.12628,1244.1406C343.12622,1244.1887,343.10056,1244.2112,343.0567,1244.2112C342.96887,1244.2112,342.8082,1244.1211,342.63474,1243.9666C342.34567,1243.7347,339.54138,1241.9381,336.41904,1239.9963L330.72363,1236.4607L324.75964,1240.5625C321.48553,1242.7688,318.78128,1244.5486,318.71014,1244.5486C318.7096,1244.5486,318.7092,1244.5483,318.70895,1244.5481C318.65115,1244.4902,319.3778,1241.3667,320.30756,1237.6357C321.2663,1233.9048,321.9641,1230.6942,321.90643,1230.5205C321.81982,1230.3469,319.2184,1228.2322,316.1255,1225.8276L310.45987,1221.482L312.54303,1221.3108C313.70035,1221.2252,316.30426,1221.0255,318.35846,1220.8541C320.37762,1220.7122,322.71313,1220.5704,323.5586,1220.5704C323.56113,1220.5704,323.56366,1220.5704,323.56616,1220.5704L325.09943,1220.5721L326.6374,1216.2922C327.4789,1213.9497,328.55246,1211.0,329.01675,1209.6987C329.48102,1208.4263,329.85843,1207.2117,329.85864,1207.0381C329.8589,1206.8204,329.88736,1206.7037,329.95148,1206.7037 Z"/> </g> </g> </g> <defs> <linearGradient id="grad0" x1="48.79534" y1="1225.614" x2="428.8532" y2="1222.6327"> <stop offset="0.0%" style="stop-color:rgb(255,255,255); stop-opacity:1.0"/> <stop offset="100.0%" style="stop-color:rgb(0,0,0); stop-opacity:1.0"/> </linearGradient> </defs> </svg>